<svg xmlns="http://www.w3.org/2000/svg" viewBox="0 0 700 701.23"><defs><style>.cls-1,.cls-2{fill:#fff;}.cls-2{stroke:#000;stroke-miterlimit:10;}</style></defs><g id="Layer_2" data-name="Layer 2"><g id="Layer_1-2" data-name="Layer 1"><g id="Layer_2-2" data-name="Layer 2"><g id="ninjalynx-logo-symbol"><path class="cls-1" d="M70.71,74.11c1,1,1.81,2,2.76,3q50.82,51.3,101.72,102.53a68,68,0,0,0,10.5,8C201.81,198.16,216,210,229.48,222.33a17.37,17.37,0,0,1,4,5.92c4,8.43,7.73,17,12,26.33,5.63-4.74,11-8.64,15.45-13q26.2-25.8,51.82-52c2-2.09,3.81-3,7.34-3q29.92.21,59.83,0a9.22,9.22,0,0,1,7.35,3q31.07,30.61,62.5,60.95a41.58,41.58,0,0,0,4.77,3.34c.67-1.25,1.43-2.37,1.91-3.55,3.43-7.8,6.68-15.6,10.3-23.34a18.69,18.69,0,0,1,4.11-5.08,366.74,366.74,0,0,1,47.8-37.4,49.84,49.84,0,0,0,7.54-6.2q49.95-50.25,99.81-100.65a9.12,9.12,0,0,0,2.67-4c-59,47.85-118.8,94.94-176.33,144-13.08-9.89-26.53-20.13-40.27-30.58,10.49-5.36,20.8-10.51,30.82-15.88Q515.79,132.58,588.45,94a32.33,32.33,0,0,0,6.68-4.6q51-43.24,101.53-86.57c1-.77,1.91-1.54,3.34-2.65-7.54,13.09-15.08,25.56-21.85,38.31C670.42,52.8,662.6,67.21,656,81.91c-8.78,19.71-7.44,40.19-6.77,60.6,1,31.76,1.43,63.52,2,95.28.19,12.33.29,24.59.19,36.92a14.08,14.08,0,0,1-1.91,6.89c-8.49,15.33-18.13,30.3-25.76,45.83-8.11,16.65-14.5,33.78-21.37,50.71-10,24.93-19.76,50-29.68,75-.86,2.16-2.58,4-3.72,6.13-12,21.32-32.73,38-53.25,55-50.19,41.93-99.33,84.63-141.31,131.29-7.25,8.08-12,17.35-18.32,26a7.17,7.17,0,0,1-4.87,1.95c-2.58-.07-6.87-.62-7.25-1.6-5.82-13.79-17.18-25.35-28.15-37-30.44-32.32-64.31-62.69-98.86-92.64-20.51-17.83-41.79-35.18-62.69-52.8a59.44,59.44,0,0,1-6.77-7.1c-20.61-23.47-28.53-50.36-39-76.55-9.25-23.19-17.55-46.67-27.76-69.65-6.49-14.63-15.08-28.91-24-42.91a53.83,53.83,0,0,1-8.49-31.41c.86-33.22.77-66.45,1.34-99.67.19-12.05,1-24.1,1.62-36.08,1.34-24.66-6.77-48-19.66-70.56C21.37,37.26,10.88,19,0,0,3.44,2.86,6.2,5.22,9.06,7.66q48.24,41.16,96.47,82.4a20.54,20.54,0,0,0,4.3,3Q193,137,276.15,181c3.62,2,7.53,3.7,11.92,5.86l-40.36,30.71c-57.54-48.82-117.27-96-175.48-144.25Zm280,279-1.43-.06c-1.53,4-3.06,8.07-4.68,12q-13.87,34.17-28,68.19c-8.39,20.62-16.89,41.24-25.28,61.92a64,64,0,0,0-2.29,8.57c-.77,2.93.86,4,4.77,3,17.65-4.6,35.21-9.27,52.86-13.72a14.07,14.07,0,0,1,6.39,0c17.66,4.45,35.31,9.12,53,13.72,3.72,1,5.73.21,4.87-2.86a70.38,70.38,0,0,0-2.77-9.68C399,472.1,389.5,450,380.44,427.87c-4.58-11.14-8.68-22.36-13.07-33.5C361.83,380.58,356.2,366.79,350.67,353.06ZM223.85,503.16c-5.34,7.25-10.87,12.4-23.18,10.94-.1,0-.29.14-.86.49h0c16.41,14.35,32.54,28.62,48.95,42.69,1.14,1,3.82,1.4,5.72,1.4q21.48.32,42.94.41c13.36.07,26.82.14,40.18.07,6.87,0,7.44-1,8.11-5.57.85-5.29-3.34-8.5-7.83-11.49-15.07-10.31-30.15-20.55-45.61-30.58-4.48-2.92-6.2-6.34-6.49-10.38q-2.28-33.31-4.58-66.51c-.09-1.26-.28-2.44-.67-4.74-1.9,2.16-3,3.34-4,4.53m144-3.55-1.15.13c-.19,1.12-.48,2.3-.57,3.42-1.53,22.15-3.06,44.37-4.58,66.52-.29,4.17-2,7.73-6.68,10.72-11.93,7.52-23.48,15.33-35,23.2-5.82,4-11.83,7.94-16.22,12.67-2.29,2.44-1.82,6.62-1.05,9.75.28,1,5.63,1.33,8.68,1.88a6.27,6.27,0,0,0,1.62,0c26.63-.14,53.25-.2,79.87-.55a14,14,0,0,0,7.54-2.72c15.17-12.95,30.15-26,45.13-39.14a31.89,31.89,0,0,0,2.58-2.86c-3.25,0-5.63-.07-8,0-6,.21-9.54-1.74-12.5-5.71-14.79-20-30-39.77-45.23-59.62C430.25,442.57,425.29,436.72,420.52,430.87ZM306,434.77l1.62-.28c0-7.52.1-15-.09-22.5a12.77,12.77,0,0,0-1.53-5.78c-11.35-20.69-22.8-41.44-34.35-62.06A10.7,10.7,0,0,0,267,340c-8.49-4.11-17.08-7.94-25.57-12-25.86-12.19-51.52-24.59-79.77-33.71-3.43-1.12-5.25-.84-7.82,1.11Q125.47,316.88,97,338.16c-1.24.9-2.29,1.88-4.3,3.55,4,.28,6.78.7,9.54.63,38.36-.77,76.82-1.46,115.18-2.51,10.21-.28,21.37.84,29.29-6.06,20,34,39.6,67.49,59.35,101Zm300.67-93a13,13,0,0,0-2.1-2.37c-19.85-14.9-39.6-29.81-59.64-44.57-1.14-.84-4.39-1.12-5.91-.56-12.79,4.6-25.86,9-38.08,14.35-23.09,10.17-45.7,20.89-68.41,31.55a10.59,10.59,0,0,0-4.68,4.53c-10.3,18.31-19.56,37-30.72,55-7.16,11.56-3.63,23.13-5,34.69l1.71.35,58.69-99.88c5.05,1.39,10.21,3.2,15.65,4.17,4.48.84,9.35.77,14,.84,38.55.84,77.2,1.67,115.75,2.44A82.14,82.14,0,0,0,606.68,341.78ZM79,97.44c0,25.7-.1,52.17.19,78.57,0,1.81,2.29,4.18,4.48,5.36q59.4,33.12,119,66c1,.42,1.91.84,2.86,1.19l1.44-.91ZM492.94,247.61l1.81.84a5,5,0,0,0,1-.28Q556.39,214.63,616.89,181a7.71,7.71,0,0,0,3.91-6c.57-25.42.76-50.77,1.15-76.19,0-.84-.19-1.68-.19-2.37ZM401.72,601.93c-5.82-4.88-11.55-10.52-18.51-15.32-19.37-13.45-42.85-14.7-63.55-1.88-8.31,5.15-14.89,11.77-21.57,17.13l51.81,56.42ZM250.29,440.06c-4.87-.7-9.07-1.18-13.27-1.88-32.82-5.16-59.54-17.9-81.77-35.59-18-14.42-34.73-29.81-52-44.79l-8.3-7.1-1.43.55c2.58,4.53,4.39,9.55,7.92,13.59Q157,427.74,212.88,490.35c1,1,2,2.09,3.53,3.62Zm233.2,53.84a17,17,0,0,0,1.72-1.53q57.68-64.68,115-129.48c3-3.42,3.91-7.81,5.82-11.78a96,96,0,0,0-14.31,11.22c-18.8,16.78-36.55,34.27-58.78,48.82A176,176,0,0,1,457.35,439c-2.39.28-4.77.63-7.54,1.05ZM307.63,340c3.15-47.64,6.3-94.59,9.55-142.23a12,12,0,0,0-1.72,1.95q-24.91,47.33-49.62,94.8a5.33,5.33,0,0,0,0,4.52c4.29,9.83,8.78,19.58,13.36,29.33a6.14,6.14,0,0,0,3,3C290.27,334.33,298.47,337,307.63,340Zm84.74,0c8-2.65,15-5.08,22.13-7.31,3.53-.91,6.3-3.07,7.26-5.78,3.72-8.85,8.11-17.49,11.73-26.4a9.45,9.45,0,0,0-.28-7.87q-23.62-45.56-47.71-91.11c-.58-1.11-1.34-2.16-2-3.2l-.57.21c3.15,46.94,6.3,93.82,9.45,141.46Zm207.06,5.29c-.19-.34-.48-.62-.67-1-18.13,3.9-36.36,7.73-54.39,11.77a7.77,7.77,0,0,0-4.1,2.92q-13.17,17-26,34.27c-1.33,1.88-2.57,3.14-6,3.07-23.85-.35-47.8-.42-71.75-.63h-13c4.87,4,7.16,8.43,15.27,9.26,23.66,2.3,47.23,5.3,70.8,8a9.13,9.13,0,0,0,7.54-1.95q39.5-31.65,79.29-63.24c1-.77,2-1.67,3-2.51Zm-498.28-1-.58.9a13,13,0,0,0,1.05,1.26q40.94,32.6,82,65.19c1.33,1.05,4.48,1.6,6.68,1.32,23.47-2.57,46.85-5.57,70.32-7.8,8.49-.83,10.88-5.36,15.08-8.77-27.77,0-55.15-.07-82.44.07-4,0-6-.84-7.92-3.49-8.31-11.42-17-22.7-25.58-34a7.55,7.55,0,0,0-4.2-2.85C137.5,352.09,119.37,348.26,101.15,344.36Zm126.9-54.68c-6.29-12.26-12.21-23.82-17.27-33.85-12.59,8.5-25.47,17.2-39.22,26.47Zm299.05-7.24.76-1.33L489.6,255c-5.54,10.86-11.45,22.35-17.65,34.61m33.11,66c-2.58,14.56-5.63,19.64-15.08,21.66-17.56,3.77-31-.55-39.88-12.81l-7.35,8.63a50.42,50.42,0,0,0,24.62,14c25.57,5.23,49.23-6.26,52.1-25.56a4,4,0,0,0-2.49-3.55c-3.81-1.25-7.92-1.67-11.92-2.37Zm-309.74-.07c-4.58.84-8.77,1.4-12.88,2.44-1.05.28-2.38,1.95-2.1,2.65,2.29,5.5,3.53,11.63,7.83,16.16,16.22,16.85,55.34,14.41,68.8-4-2.2-2.58-4.49-5.23-7.26-8.43-8.39,12-21.47,16.58-38.16,13.16-14.41-3-16.42-12.19-16.23-22ZM318.8,573.16H266.22l22,20.41C298.47,586.75,308.3,580.2,318.8,573.16Zm115.07-.07H381.11l30.72,20.48ZM231.2,353c0-4.53-5-8.22-11.26-8.29s-11.26,3.62-11.35,8.22c0,4.45,4.86,8.14,11,8.28,6.3.07,11.55-3.62,11.64-8.21Zm249-8.22c-6.1,0-11.16,3.48-11.35,7.94s5,8.28,11.16,8.28,11.36-3.62,11.36-8.14S486.26,344.85,480.15,344.78Z"/><path d="M401.72,601.93,350,658.21l-51.81-56.42c6.68-5.36,13.26-12,21.56-17.13,20.61-12.75,44.18-11.57,63.55,1.88C390.17,591.34,396,597.05,401.72,601.93Z"/><path d="M505.06,355.57a107.89,107.89,0,0,1,11.92,2.3,4,4,0,0,1,2.49,3.55c-2.87,19.3-26.53,30.79-52.1,25.57a50.57,50.57,0,0,1-24.62-14l7.35-8.64C459,376.61,472.52,381,490,377.16,499.43,375.21,502.48,370.06,505.06,355.57Z"/><path d="M195.32,355.43c-.28,9.89,1.82,19.09,16.23,22,16.69,3.42,29.67-1.18,38.16-13.16,2.77,3.2,5.06,5.85,7.26,8.43-13.46,18.31-52.58,20.75-68.8,4-4.39-4.53-5.54-10.66-7.83-16.16-.28-.7,1-2.44,2.1-2.65C186.55,356.9,190.74,356.27,195.32,355.43Z"/><path d="M318.8,573.16c-10.5,7-20.42,13.59-30.63,20.41l-21.95-20.41Z"/><path d="M433.87,573.09l-22,20.48-30.72-20.48Z"/><path d="M231.2,353c.19,4.52-4.77,8.28-11,8.42s-11.36-3.48-11.55-8v-.48c.19-4.53,5.44-8.08,11.64-7.94C226.24,345.12,231,348.68,231.2,353Z"/><path d="M480.15,344.78c6.11.07,11.07,3.62,11.17,8.08s-4.87,8.28-11.07,8.35-11.36-3.55-11.45-8.08,4.86-8.28,11.07-8.35Z"/><polygon class="cls-2" points="349.9 434.77 165.65 509.99 349.9 700 349.9 434.77"/><polygon class="cls-2" points="350 434.77 534.26 509.99 350 700 350 434.77"/></g></g></g></g></svg>