<?xml version="1.0" encoding="utf-8"?>
<svg version="1.1" id="Layer_1" fill="#ffffff" xmlns="http://www.w3.org/2000/svg" xmlns:xlink="http://www.w3.org/1999/xlink" x="0px" y="0px"
	 viewBox="0 0 733.6 1006.5" style="enable-background:new 0 0 733.6 1006.5;" xml:space="preserve">
<style type="text/css">
	.st0{fill:#ffffff00;}
	.st1{fill:#ffffff;stroke:#ffffff00;stroke-miterlimit:10;}
</style>
<g id="Layer_2_1_">
	
		<g id="ninjalynx-logo-symbol">
		<path d="M74.1,106.4c1,1.4,1.9,2.9,2.9,4.3c35.5,49.1,71,98.2,106.6,147.2c3.3,4.2,6.9,8,11,11.5c16.9,15.1,31.8,32.1,45.9,49.8
			c1.9,2.6,3.3,5.4,4.2,8.5c4.2,12.1,8.1,24.4,12.6,37.8c5.9-6.8,11.5-12.4,16.2-18.7c18.3-24.7,36.4-49.6,54.3-74.6
			c2.1-3,4-4.3,7.7-4.3c20.9,0.2,41.8,0.2,62.7,0c3.7,0,5.6,1.5,7.7,4.3c21.7,29.3,43.5,58.5,65.5,87.5c1.2,1.6,3,2.9,5,4.8
			c0.7-1.8,1.5-3.4,2-5.1c3.6-11.2,7-22.4,10.8-33.5c1-2.6,2.5-5.1,4.3-7.3c15.2-19.3,31.9-37.3,50.1-53.7c2.9-2.7,5.6-5.7,7.9-8.9
			c34.9-48.1,69.8-96.3,104.6-144.5c1.4-1.7,2.3-3.7,2.8-5.8C597.1,174.4,534.4,242,474.1,312.4c-13.7-14.2-27.8-28.9-42.2-43.9
			c11-7.7,21.8-15.1,32.3-22.8c50.9-36.9,101.7-73.8,152.5-110.8c2.6-1.9,5-4.1,7-6.6C659.3,86.9,694.7,45.5,730.1,4
			c1-1.1,2-2.2,3.5-3.8c-7.9,18.8-15.8,36.7-22.9,55c-8.1,20.6-16.3,41.3-23.2,62.4c-9.2,28.3-7.8,57.7-7.1,87
			c1,45.6,1.5,91.2,2.1,136.8c0.2,17.7,0.3,35.3,0.2,53c0,3.4-0.7,6.7-2,9.9c-8.9,22-19,43.5-27,65.8c-8.5,23.9-15.2,48.5-22.4,72.8
			c-10.5,35.8-20.7,71.8-31.1,107.7c-0.9,3.1-2.7,5.8-3.9,8.8c-12.6,30.6-34.3,54.5-55.8,79c-52.6,60.2-104.1,121.5-148.1,188.5
			c-7.6,11.6-12.6,24.9-19.2,37.3c-1.2,1.7-3.1,2.7-5.1,2.8c-2.7-0.1-7.2-0.9-7.6-2.3c-6.1-19.8-18-36.4-29.5-53.1
			c-31.9-46.4-67.4-90-103.6-133c-21.5-25.6-43.8-50.5-65.7-75.8c-2.6-3.2-5-6.6-7.1-10.2c-21.6-33.7-29.9-72.3-40.9-109.9
			c-9.7-33.3-18.4-67-29.1-100c-6.8-21-15.8-41.5-25.1-61.6c-6.7-14.5-9.2-29.1-8.9-45.1c0.9-47.7,0.8-95.4,1.4-143.1
			c0.2-17.3,1-34.6,1.7-51.8c1.4-35.4-7.1-68.9-20.6-101.3C22.4,53.5,11.4,27.3,0,0c3.6,4.1,6.5,7.5,9.5,11
			c33.7,39.4,67.4,78.8,101.1,118.3c1.3,1.6,2.8,3.1,4.5,4.3c58.1,42.1,116.2,84.3,174.3,126.3c3.8,2.8,7.9,5.3,12.5,8.4l-42.3,44.1
			c-60.3-70.1-122.9-137.9-183.9-207.1L74.1,106.4z M367.5,506.9l-1.5-0.1c-1.6,5.8-3.2,11.6-4.9,17.3
			c-9.7,32.7-19.5,65.3-29.3,97.9c-8.8,29.6-17.7,59.2-26.5,88.9c-1,4-1.8,8.1-2.4,12.3c-0.8,4.2,0.9,5.8,5,4.3
			c18.5-6.6,36.9-13.3,55.4-19.7c2.2-0.7,4.5-0.7,6.7,0c18.5,6.4,37,13.1,55.5,19.7c3.9,1.4,6,0.3,5.1-4.1
			c-0.7-4.7-1.7-9.3-2.9-13.9c-9.6-31.7-19.5-63.4-29-95.2c-4.8-16-9.1-32.1-13.7-48.1C379.2,546.4,373.3,526.6,367.5,506.9z
			 M234.6,722.4c-5.6,10.4-11.4,17.8-24.3,15.7c-0.1,0-0.3,0.2-0.9,0.7h0c17.2,20.6,34.1,41.1,51.3,61.3c1.2,1.4,4,2,6,2
			c15,0.3,30,0.5,45,0.6c14,0.1,28.1,0.2,42.1,0.1c7.2,0,7.8-1.5,8.5-8c0.9-7.6-3.5-12.2-8.2-16.5c-15.8-14.8-31.6-29.5-47.8-43.9
			c-4.7-4.2-6.5-9.1-6.8-14.9c-1.6-31.9-3.2-63.7-4.8-95.5c-0.1-1.8-0.3-3.5-0.7-6.8c-2,3.1-3.2,4.8-4.2,6.5 M440.7,618.6l-1.2,0.2
			c-0.2,1.6-0.5,3.3-0.6,4.9c-1.6,31.8-3.2,63.7-4.8,95.5c-0.3,6-2.1,11.1-7,15.4c-12.5,10.8-24.6,22-36.7,33.3
			c-6.1,5.7-12.4,11.4-17,18.2c-2.4,3.5-1.9,9.5-1.1,14c0.3,1.4,5.9,1.9,9.1,2.7c0.6,0.1,1.1,0.1,1.7,0c27.9-0.2,55.8-0.3,83.7-0.8
			c3-0.3,5.9-1.7,7.9-3.9c15.9-18.6,31.6-37.4,47.3-56.2c0.9-1,1.5-2.3,2.7-4.1c-3.4,0-5.9-0.1-8.4,0c-6.3,0.3-10-2.5-13.1-8.2
			c-15.5-28.7-31.5-57.1-47.4-85.6C450.9,635.4,445.7,627,440.7,618.6z M320.7,624.2l1.7-0.4c0-10.8,0.1-21.5-0.1-32.3
			c0-2.8-0.6-5.6-1.6-8.3c-11.9-29.7-23.9-59.5-36-89.1c-1-2.4-2.7-4.4-4.9-5.9c-8.9-5.9-17.9-11.4-26.8-17.2
			c-27.1-17.5-54-35.3-83.6-48.4c-3.6-1.6-5.5-1.2-8.2,1.6c-19.8,20.5-39.7,40.9-59.6,61.3c-1.3,1.3-2.4,2.7-4.5,5.1
			c4.2,0.4,7.1,1,10,0.9c40.2-1.1,80.5-2.1,120.7-3.6c10.7-0.4,22.4,1.2,30.7-8.7C279.5,528,300,576.1,320.7,624.2L320.7,624.2z
			 M635.8,490.7c-0.6-1.2-1.3-2.3-2.2-3.4c-20.8-21.4-41.5-42.8-62.5-64c-1.2-1.2-4.6-1.6-6.2-0.8c-13.4,6.6-27.1,12.9-39.9,20.6
			c-24.2,14.6-47.9,30-71.7,45.3c-2.2,1.6-4,3.9-4.9,6.5c-10.8,26.3-20.5,53.1-32.2,79c-7.5,16.6-3.8,33.2-5.2,49.8l1.8,0.5
			l61.5-143.4c5.3,2,10.7,4.6,16.4,6c4.7,1.2,9.8,1.1,14.7,1.2c40.4,1.2,80.9,2.4,121.3,3.5C629.5,491.6,632.3,491.1,635.8,490.7z
			 M82.8,139.9c0,36.9-0.1,74.9,0.2,112.8c0,2.6,2.4,6,4.7,7.7c41.5,31.7,83.1,63.3,124.7,94.7c1,0.6,2,1.2,3,1.7l1.5-1.3
			L82.8,139.9z M516.6,355.5l1.9,1.2c0.3-0.1,0.7-0.2,1-0.4c42.4-32.1,84.7-64.2,127-96.4c2.5-2.2,4-5.3,4.1-8.6
			c0.6-36.5,0.8-72.9,1.2-109.4c0-1.2-0.2-2.4-0.2-3.4L516.6,355.5z M421,864.2c-6.1-7-12.1-15.1-19.4-22
			c-20.3-19.3-44.9-21.1-66.6-2.7c-8.7,7.4-15.6,16.9-22.6,24.6l54.3,81L421,864.2z M262.3,631.8c-5.1-1-9.5-1.7-13.9-2.7
			c-34.4-7.4-62.4-25.7-85.7-51.1c-18.9-20.7-36.4-42.8-54.5-64.3c-2.9-3.4-5.8-6.8-8.7-10.2l-1.5,0.8c2.7,6.5,4.6,13.7,8.3,19.5
			C145.1,584,184,644,223.1,704c1,1.5,2.1,3,3.7,5.2L262.3,631.8z M506.7,709.1c1.1-1.3,1.5-1.7,1.8-2.2
			C548.8,645,588.9,583,629,521c3.2-4.9,4.1-11.2,6.1-16.9c-5.9,5-10.5,10.5-15,16.1c-19.7,24.1-38.3,49.2-61.6,70.1
			c-22.8,20.5-48.8,34.7-79.2,40c-2.5,0.4-5,0.9-7.9,1.5L506.7,709.1z M322.4,488.2c3.3-68.4,6.6-135.8,10-204.2
			c-0.7,0.9-1.3,1.8-1.8,2.8c-17.4,45.3-34.7,90.7-52,136.1c-0.7,2.1-0.7,4.4,0,6.5c4.5,14.1,9.2,28.1,14,42.1
			c0.6,1.6,1.7,3.6,3.1,4.3C304.2,480,312.8,483.8,322.4,488.2z M411.2,488.2c8.4-3.8,15.7-7.3,23.2-10.5c3.7-1.3,6.6-4.4,7.6-8.3
			c3.9-12.7,8.5-25.1,12.3-37.9c1.1-3.7,1-7.7-0.3-11.3c-16.5-43.6-33.2-87.2-50-130.8c-0.6-1.6-1.4-3.1-2.1-4.6l-0.6,0.3
			C404.6,352.5,407.9,419.8,411.2,488.2L411.2,488.2z M628.2,495.8c-0.2-0.5-0.5-0.9-0.7-1.4c-19,5.6-38.1,11.1-57,16.9
			c-1.7,0.5-3.4,2.5-4.3,4.2c-9.2,16.3-18.3,32.7-27.2,49.2c-1.4,2.7-2.7,4.5-6.3,4.4c-25-0.5-50.1-0.6-75.2-0.9
			c-4.2,0-8.5,0-13.6,0c5.1,5.7,7.5,12.1,16,13.3c24.8,3.3,49.5,7.6,74.2,11.5c3,0.7,6.1-0.5,7.9-2.8c27.6-30.3,55.3-60.6,83.1-90.8
			C626.2,498.3,627.2,497,628.2,495.8L628.2,495.8z M106,494.4l-0.6,1.3c0.3,0.6,0.7,1.2,1.1,1.8c28.6,31.2,57.2,62.4,85.9,93.6
			c1.4,1.5,4.7,2.3,7,1.9c24.6-3.7,49.1-8,73.7-11.2c8.9-1.2,11.4-7.7,15.8-12.6c-29.1,0-57.8-0.1-86.4,0.1c-4.2,0-6.3-1.2-8.3-5
			c-8.7-16.4-17.8-32.6-26.8-48.8c-0.9-1.7-2.6-3.6-4.4-4.1C144.1,505.5,125.1,500,106,494.4z M239,415.9
			c-6.6-17.6-12.8-34.2-18.1-48.6c-13.2,12.2-26.7,24.7-41.1,38L239,415.9z M552.4,405.5l0.8-1.9l-40.1-37.5
			c-5.8,15.6-12,32.1-18.5,49.7 M529.3,510.5c-2.7,20.9-5.9,28.2-15.8,31.1c-18.4,5.4-32.5-0.8-41.8-18.4l-7.7,12.4
			c6.3,9.4,16.9,17.6,25.8,20.1c26.8,7.5,51.6-9,54.6-36.7c0.2-1.7-1.2-4.6-2.6-5.1C537.8,512.1,533.5,511.5,529.3,510.5
			L529.3,510.5z M204.7,510.4c-4.8,1.2-9.2,2-13.5,3.5c-1.1,0.4-2.5,2.8-2.2,3.8c2.4,7.9,3.7,16.7,8.2,23.2
			c17,24.2,58,20.7,72.1-5.7c-2.3-3.7-4.7-7.5-7.6-12.1c-8.8,17.3-22.5,23.8-40,18.9C206.6,537.7,204.5,524.5,204.7,510.4
			L204.7,510.4z M334.1,822.9H279l23.1,29.3C312.8,842.4,323.1,833,334.1,822.9z M454.7,822.8h-55.3l32.2,29.4L454.7,822.8z
			 M242.3,506.8c0-6.5-5.2-11.8-11.8-11.9c-6.5,0-11.8,5.2-11.9,11.8c0,6.4,5.1,11.7,11.5,11.9C236.7,518.7,242.2,513.4,242.3,506.8
			L242.3,506.8z M503.2,495c-6.4,0-11.7,5-11.9,11.4c-0.1,6.5,5.2,11.9,11.7,11.9c6.5,0.1,11.9-5.2,11.9-11.7
			C514.8,500.2,509.6,495.1,503.2,495z"/>
		<path class="st0" d="M421,864.2L366.8,945l-54.3-81c7-7.7,13.9-17.2,22.6-24.6c21.6-18.3,46.3-16.6,66.6,2.7
			C408.9,849,415,857.2,421,864.2z"/>
		<path class="st0" d="M529.3,510.5c4.2,1,8.6,1.7,12.5,3.3c1.4,0.5,2.8,3.5,2.6,5.1c-3,27.7-27.8,44.2-54.6,36.7
			c-8.9-2.5-19.5-10.7-25.8-20.1l7.7-12.4c9.3,17.6,23.5,23.9,41.8,18.4C523.4,538.7,526.6,531.3,529.3,510.5z"/>
		<path class="st0" d="M204.7,510.3c-0.3,14.2,1.9,27.4,17,31.6c17.5,4.9,31.1-1.7,40-18.9c2.9,4.6,5.3,8.4,7.6,12.1
			c-14.1,26.3-55.1,29.8-72.1,5.7c-4.6-6.5-5.8-15.3-8.2-23.2c-0.3-1,1.1-3.5,2.2-3.8C195.5,512.4,199.9,511.5,204.7,510.3z"/>
		<path class="st0" d="M334.1,822.9c-11,10.1-21.4,19.5-32.1,29.3l-23-29.3H334.1z"/>
		<path class="st0" d="M454.7,822.8l-23.1,29.4l-32.2-29.4H454.7z"/>
		<path class="st0" d="M242.3,506.8c0.2,6.5-5,11.9-11.5,12.1c-6.5,0.2-11.9-5-12.1-11.5c0-0.2,0-0.5,0-0.7
			c0.2-6.5,5.7-11.6,12.2-11.4C237.1,495.5,242.1,500.6,242.3,506.8z"/>
		<path class="st0" d="M503.2,495c6.4,0.1,11.6,5.2,11.7,11.6c0.1,6.5-5.1,11.9-11.6,12c-6.5,0.1-11.9-5.1-12-11.6
			c-0.1-6.5,5.1-11.9,11.6-12C503,495,503.1,495,503.2,495z"/>
		<polygon class="st1" points="366.7,624.2 173.6,732.2 366.7,1005 		"/>
		<polygon class="st1" points="366.8,624.2 559.9,732.2 366.8,1005 		"/>
	</g>
</g>
</svg>
