<svg xmlns="http://www.w3.org/2000/svg" viewBox="0 0 601.6 121.26" fill="#ffffff"><g id="Layer_2" data-name="Layer 2"><g id="ninjalynx-logo-lettering"><path d="M0,95.5V23.66H54.87a17,17,0,0,1,9,2.48,18.67,18.67,0,0,1,6.51,6.56,17.23,17.23,0,0,1,2.41,8.92V95.5H53.88V42.61H19V95.5Z"/><path d="M86,19.2V.12h19V19.2Zm0,76.3V23.66h19V95.5Z"/><path d="M119.53,95.5V23.66H174.4a17,17,0,0,1,9,2.48,18.65,18.65,0,0,1,6.5,6.56,17.24,17.24,0,0,1,2.42,8.92V95.5h-19V42.61H138.48V95.5Z"/><path d="M175.89,121.26V102.19h30.34V23.66h19V103.3a17.14,17.14,0,0,1-2.47,9,18.76,18.76,0,0,1-6.57,6.5,17.43,17.43,0,0,1-9,2.41ZM206.23,19.2V.12h19V19.2Z"/><path d="M254.29,95.5a17,17,0,0,1-9-2.48,18.65,18.65,0,0,1-6.5-6.56,17.24,17.24,0,0,1-2.42-8.92V50h53.88V42.61H236.33V23.66H291.2a17.08,17.08,0,0,1,9.05,2.48,18.73,18.73,0,0,1,6.5,6.56,17.23,17.23,0,0,1,2.41,8.92V95.5Zm35.92-19V66.64H255.28v9.91Z"/><path d="M328,93a19.24,19.24,0,0,1-6.56-6.56A16.83,16.83,0,0,1,319,77.54V0H338V76.55h14.5v19H336.91A16.81,16.81,0,0,1,328,93Z"/><path d="M373.32,121.26V102.19h42.61V95.5H380A17,17,0,0,1,371,93a19.18,19.18,0,0,1-6.57-6.56,16.92,16.92,0,0,1-2.47-8.92V23.91h18.95V76.55h35.05V23.91h18.95V103.3a17.46,17.46,0,0,1-2.41,9,18.19,18.19,0,0,1-6.51,6.5,17.43,17.43,0,0,1-9,2.41Z"/><path d="M444.92,95.5V23.66h54.87a17,17,0,0,1,9,2.48,18.65,18.65,0,0,1,6.5,6.56,17.24,17.24,0,0,1,2.42,8.92V95.5H498.8V42.61H463.87V95.5Z"/><path d="M527.53,95.5V89.31L552.31,59,527.53,29.85V23.66H547l17.59,20.81L582,23.66H601.6v6.19L576.83,59,601.6,89.31V95.5H582.16L564.57,74,547,95.5Z"/></g></g></svg>