<?xml version="1.0" encoding="utf-8"?>
<!-- Generator: Adobe Illustrator 24.1.2, SVG Export Plug-In . SVG Version: 6.00 Build 0)  -->
<svg version="1.1"
	 id="DALL·E_2025-03-25_20.18.47_-_A_highly_symmetrical_x2C__origami-style_vector_logo_of_a_lynx._The_design_should_feature_sharp_geometric_shapes_and_a_folded_paper_aesthetic_while_maintai_xA0_Image_1_"
	 xmlns="http://www.w3.org/2000/svg" xmlns:xlink="http://www.w3.org/1999/xlink" x="0px" y="0px" viewBox="0 0 1024 1024"
	 style="enable-background:new 0 0 1024 1024;" xml:space="preserve">
<style type="text/css">
	.st0{fill:#FFFFFF;}
	.st1{fill:#010101;stroke:#000000;stroke-miterlimit:10;}
</style>
<g>
	<path d="M255.3,181.3c0.8,1.3,1.6,2.5,2.5,3.8c31.1,43.1,62.2,86.1,93.5,129.1c2.7,3.7,6.2,7,9.7,10.1
		c14.8,13.3,27.9,28.2,40.2,43.7c1.7,2.1,2.8,4.8,3.7,7.4c3.6,10.7,7.1,21.4,11,33.2c5.2-5.9,10.1-10.9,14.2-16.4
		c16-21.7,31.9-43.5,47.6-65.4c1.9-2.6,3.5-3.8,6.8-3.8c18.3,0.1,36.6,0.2,55,0c3.3,0,4.9,1.3,6.8,3.8c19,25.7,38.2,51.2,57.4,76.8
		c1.1,1.4,2.6,2.5,4.4,4.2c0.6-1.6,1.3-3,1.8-4.5c3.1-9.8,6.2-19.7,9.5-29.4c0.8-2.3,2.3-4.4,3.8-6.4c13.3-17,28-32.6,43.9-47.1
		c2.6-2.3,4.9-5,6.9-7.8c30.6-42.2,61.2-84.5,91.7-126.7c1.1-1.5,2.1-3.1,2.4-5.1C714,241,659,300.2,606.2,361.9
		c-12-12.5-24.4-25.4-37-38.5c9.7-6.8,19.1-13.3,28.4-20c44.6-32.4,89.2-64.8,133.8-97.2c2.3-1.6,4.4-3.6,6.2-5.7
		c31.1-36.3,62.2-72.7,93.2-109.1c0.9-1,1.8-1.9,3.1-3.4c-6.9,16.5-13.8,32.2-20.1,48.2c-7.1,18.1-14.3,36.2-20.3,54.7
		c-8.1,24.8-6.8,50.6-6.3,76.3c0.9,40,1.3,80,1.9,120c0.2,15.5,0.2,31,0.1,46.5c0,2.9-0.6,6-1.7,8.7c-7.8,19.3-16.7,38.2-23.6,57.7
		c-7.4,21-13.3,42.5-19.6,63.9c-9.2,31.4-18.2,63-27.3,94.4c-0.8,2.7-2.4,5.1-3.4,7.7c-11.1,26.8-30.1,47.8-48.9,69.3
		c-46.2,52.8-91.3,106.6-129.9,165.3c-6.7,10.2-11.1,21.9-16.8,32.7c-0.7,1.3-3,2.5-4.5,2.5c-2.3-0.1-6.3-0.7-6.7-2.1
		c-5.4-17.4-15.8-31.9-25.8-46.5c-27.9-40.7-59.1-79-90.9-116.7c-18.9-22.4-38.5-44.3-57.7-66.4c-2.4-2.7-4.3-5.9-6.2-9
		c-19-29.5-26.3-63.4-35.9-96.4c-8.5-29.2-16.2-58.7-25.5-87.7c-6-18.5-13.9-36.4-22-54.1c-5.9-12.8-8-25.6-7.8-39.5
		c0.8-41.8,0.7-83.7,1.2-125.5c0.2-15.2,0.9-30.3,1.5-45.5c1.2-31.1-6.3-60.4-18-88.9c-9.5-23-19.2-46-29.1-69.9
		c3.1,3.6,5.7,6.6,8.3,9.6c29.5,34.6,59.1,69.2,88.6,103.8c1.2,1.4,2.5,2.7,4,3.8c50.9,37,101.9,73.9,152.9,110.8
		c3.4,2.4,6.9,4.6,10.9,7.3c-12.6,13.1-25,26-37.1,38.7C365,300.4,310.1,241,256.6,180.3C256.2,180.6,255.8,181,255.3,181.3z
		 M512.6,532.5c-0.4,0-0.8,0-1.3-0.1c-1.4,5.1-2.8,10.1-4.3,15.2c-8.5,28.6-17.1,57.3-25.7,85.9c-7.8,26-15.6,52-23.2,78
		c-1,3.5-1.5,7.2-2.1,10.7c-0.7,3.7,0.7,5.1,4.4,3.8c16.2-5.8,32.4-11.6,48.6-17.3c1.8-0.6,4.1-0.6,5.9,0
		c16.3,5.6,32.4,11.5,48.6,17.2c3.4,1.2,5.2,0.3,4.5-3.6c-0.8-4.1-1.4-8.2-2.6-12.2c-8.4-27.8-17.1-55.6-25.4-83.5
		c-4.2-14-7.9-28.2-12-42.2C522.9,567.2,517.7,549.9,512.6,532.5z M374,735.9c15.1,18.1,29.9,36,45,53.8c1,1.2,3.5,1.7,5.3,1.8
		c13.1,0.3,26.3,0.4,39.5,0.5c12.3,0.1,24.6,0.2,37,0.1c6.3,0,6.9-1.3,7.5-7c0.8-6.7-3.1-10.7-7.2-14.5
		c-13.8-13-27.8-25.9-41.9-38.5c-4.1-3.7-5.7-8-6-13.1c-1.4-27.9-2.8-55.9-4.2-83.8c-0.1-1.6-0.3-3.1-0.6-6
		c-1.7,2.7-2.8,4.2-3.7,5.7c-16.3,28.8-32.9,57.5-48.5,86.6c-4.9,9.2-10,15.6-21.3,13.7C374.6,735.3,374.5,735.5,374,735.9z
		 M576.8,630.5c-0.4,0-0.7,0.1-1.1,0.1c-0.2,1.4-0.4,2.9-0.5,4.3c-1.4,27.9-2.8,55.9-4.2,83.8c-0.3,5.3-1.8,9.7-6.2,13.5
		c-11,9.5-21.6,19.3-32.2,29.2c-5.3,5-10.9,10-15,16c-2.1,3-1.7,8.3-1,12.3c0.2,1.2,5.2,1.6,8,2.4c0.5,0.1,1,0,1.5,0
		c24.5-0.2,48.9-0.3,73.4-0.7c2.4,0,5.4-1.6,7-3.4c14-16.3,27.7-32.8,41.4-49.3c0.8-0.9,1.3-2,2.4-3.6c-3,0-5.2-0.1-7.3,0
		c-5.5,0.3-8.7-2.2-11.5-7.2C618,702.7,604,677.7,590,652.8C585.8,645.2,581.2,637.9,576.8,630.5z M471.5,635.4
		c0.5-0.1,1-0.2,1.5-0.4c0-9.4,0.1-18.9-0.1-28.3c0-2.4-0.5-5-1.4-7.2c-10.4-26.1-20.9-52.2-31.5-78.2c-0.8-2-2.5-3.9-4.3-5.1
		c-7.7-5.2-15.7-10-23.5-15.1c-23.8-15.3-47.3-31-73.3-42.5c-3.2-1.4-4.9-1-7.2,1.4c-17.3,18-34.8,35.8-52.2,53.8
		c-1.1,1.1-2.1,2.4-3.9,4.5c3.6,0.3,6.2,0.9,8.8,0.8c35.3-1,70.6-1.8,105.9-3.2c9.4-0.4,19.7,1,26.9-7.6
		C435.4,551,453.4,593.2,471.5,635.4z M748,518.4c-0.9-1.4-1.3-2.3-1.9-3c-18.2-18.8-36.4-37.5-54.8-56.1c-1-1.1-4-1.4-5.4-0.7
		c-11.8,5.8-23.8,11.3-35,18.1c-21.2,12.8-42,26.3-62.9,39.7c-1.9,1.2-3.5,3.6-4.3,5.7c-9.4,23.1-18,46.5-28.2,69.3
		c-6.5,14.5-3.3,29.2-4.5,43.7c0.5,0.1,1,0.3,1.6,0.4c18.1-42.2,36.2-84.3,53.9-125.8c4.6,1.7,9.4,4,14.3,5.3
		c4.1,1,8.6,0.9,12.9,1.1c35.5,1.1,70.9,2.1,106.4,3.1C742.4,519.2,744.9,518.7,748,518.4z M262.9,210.6c0,32.3-0.1,65.6,0.2,99
		c0,2.3,2.1,5.2,4.1,6.8c36.4,27.8,72.9,55.4,109.4,83.1c0.8,0.6,1.7,1,2.6,1.5c0.4-0.4,0.9-0.8,1.3-1.1
		C341.1,336.4,301.7,273,262.9,210.6z M643.4,399.8c0.5,0.4,1.1,0.7,1.6,1.1c0.3-0.1,0.6-0.2,0.9-0.4
		c37.2-28.1,74.4-56.3,111.4-84.6c2-1.5,3.6-4.9,3.6-7.5c0.5-32,0.7-64,1-95.9c0-1-0.1-2.1-0.2-3
		C722.2,273.1,682.8,336.4,643.4,399.8z M559.6,845.9c-5.3-6.1-10.7-13.3-17-19.3c-17.8-16.9-39.4-18.5-58.4-2.4
		c-7.6,6.5-13.7,14.8-19.9,21.6c16.5,24.6,32.6,48.5,47.7,71C527.2,894.1,543.2,870.4,559.6,845.9z M420.3,642.1
		c-4.5-0.9-8.4-1.5-12.2-2.3c-30.1-6.5-54.7-22.5-75.1-44.9c-16.6-18.2-31.9-37.6-47.8-56.4c-2.5-3-5.1-6-7.6-9
		c-0.4,0.2-0.9,0.5-1.3,0.7c2.4,5.7,4,12,7.3,17.2c34,52.8,68.2,105.4,102.4,158.1c0.9,1.3,1.9,2.6,3.3,4.6
		C399.7,687.1,409.9,664.8,420.3,642.1z M634.7,709.9c1-1.1,1.3-1.5,1.6-1.9c35.3-54.3,70.6-108.6,105.6-163.1
		c2.8-4.3,3.6-9.8,5.4-14.8c-5.2,4.4-9.2,9.2-13.2,14.1c-17.3,21.2-33.6,43.1-54.1,61.5c-20,18-42.8,30.4-69.5,35.1
		c-2.2,0.4-4.4,0.8-6.9,1.3C614.1,664.9,624.3,687.1,634.7,709.9z M473,516.2c2.9-60,5.8-119.1,8.7-179.1c-0.9,1.3-1.3,1.8-1.6,2.4
		c-15.2,39.8-30.5,79.5-45.6,119.3c-0.6,1.7-0.6,4,0,5.7c4,12.4,8.1,24.7,12.3,36.9c0.5,1.4,1.5,3.2,2.7,3.8
		C457.1,508.9,464.6,512.3,473,516.2z M551,516.1c7.3-3.3,13.8-6.4,20.3-9.2c3.5-1.5,5.5-3.5,6.7-7.3c3.4-11.1,7.5-22.1,10.8-33.2
		c0.9-3.1,0.9-7-0.2-9.9c-14.4-38.3-29.2-76.5-43.8-114.7c-0.5-1.4-1.2-2.7-1.9-4c-0.2,0.1-0.4,0.2-0.5,0.3
		C545.2,397.1,548,456.2,551,516.1z M741.3,522.8c-0.2-0.4-0.4-0.8-0.6-1.2c-16.7,4.9-33.4,9.8-50,14.8c-1.5,0.5-3,2.2-3.8,3.6
		c-8,14.4-15.9,28.8-23.8,43.2c-1.3,2.3-2.3,3.9-5.5,3.9c-22-0.4-44-0.5-65.9-0.8c-3.7,0-7.4,0-11.9,0c4.4,5,6.6,10.6,14,11.6
		c21.8,2.9,43.4,6.6,65.1,10.1c2.9,0.5,4.9-0.2,6.9-2.5c24.2-26.6,48.6-53.1,72.9-79.6C739.5,525,740.4,523.9,741.3,522.8z
		 M283.3,521.6c-0.2,0.4-0.3,0.8-0.5,1.1c0.3,0.5,0.6,1.1,1,1.5c25.1,27.4,50.1,54.8,75.4,82.1c1.2,1.3,4.2,2,6.1,1.7
		c21.6-3.2,43-7,64.6-9.8c7.8-1,10-6.8,13.9-11.1c-25.5,0-50.7-0.1-75.8,0.1c-3.6,0-5.5-1.1-7.3-4.3c-7.6-14.4-15.6-28.6-23.5-42.8
		c-0.8-1.5-2.3-3.2-3.8-3.6C316.7,531.3,300,526.5,283.3,521.6z M399.9,452.7c-5.8-15.5-11.2-30-15.9-42.6
		c-11.6,10.7-23.4,21.6-36,33.3C365.8,446.6,382.4,449.6,399.9,452.7z M674.8,443.6c0.2-0.5,0.5-1.1,0.7-1.6
		c-11.7-10.9-23.4-21.9-35.2-32.9c-5.1,13.7-10.5,28.2-16.3,43.6C641.7,449.6,658.3,446.6,674.8,443.6z M654.5,535.7
		c-2.4,18.3-5.2,24.8-13.8,27.3c-16.1,4.8-28.5-0.7-36.7-16.2c-2.6,4.3-4.7,7.6-6.7,10.8c5.5,8.3,14.8,15.4,22.6,17.6
		c23.5,6.6,45.2-7.9,47.9-32.2c0.2-1.5-1.1-4-2.3-4.5C662,537.2,658.2,536.6,654.5,535.7z M369.9,535.6c-4.2,1-8.1,1.8-11.8,3
		c-1,0.3-2.2,2.5-1.9,3.4c2.1,6.9,3.2,14.7,7.2,20.4c14.9,21.2,50.8,18.1,63.2-5c-2-3.2-4.1-6.5-6.7-10.6
		c-7.8,15.2-19.7,20.9-35.1,16.6C371.5,559.6,369.6,548,369.9,535.6z M483.4,809.7c-16.7,0-32.3,0-48.4,0c7,8.9,13.5,17.2,20.2,25.7
		C464.6,826.8,473.7,818.5,483.4,809.7z M589.1,809.6c-16.4,0-32,0-48.5,0c9.7,8.9,18.8,17.2,28.2,25.8
		C575.5,826.9,582,818.6,589.1,809.6z M402.8,532.5c0-5.5-4.5-10.2-10.1-10.4c-5.8-0.2-10.6,4.5-10.6,10.3c0,5.6,4.5,10.2,10.1,10.4
		C397.8,543,402.8,538.2,402.8,532.5z M631.7,522.1c-5.6,0-10.3,4.4-10.5,10c-0.2,5.7,4.6,10.7,10.3,10.7
		c5.7,0.1,10.5-4.8,10.4-10.5C641.8,526.7,637.3,522.2,631.7,522.1z"/>
	<path class="st0" d="M512.6,532.5c5.1,17.3,10.3,34.7,15.4,52c4.1,14,7.8,28.2,12,42.2c8.4,27.8,17,55.6,25.4,83.5
		c1.2,4,1.8,8.1,2.6,12.2c0.7,3.9-1.1,4.8-4.5,3.6c-16.2-5.8-32.4-11.6-48.6-17.2c-1.8-0.6-4.1-0.6-5.9,0
		c-16.2,5.7-32.4,11.5-48.6,17.3c-3.6,1.3-5.1-0.1-4.4-3.8c0.6-3.6,1.1-7.3,2.1-10.7c7.7-26,15.5-52,23.2-78
		c8.6-28.6,17.1-57.3,25.7-85.9c1.5-5,2.9-10.1,4.3-15.2C511.7,532.5,512.2,532.5,512.6,532.5z"/>
	<path class="st0" d="M374,735.9c0.5-0.4,0.7-0.6,0.8-0.6c11.3,1.9,16.4-4.6,21.3-13.7c15.7-29.1,32.3-57.8,48.5-86.6
		c0.9-1.6,1.9-3,3.7-5.7c0.3,2.8,0.5,4.4,0.6,6c1.4,27.9,2.8,55.9,4.2,83.8c0.3,5.1,1.8,9.4,6,13.1c14.2,12.6,28.1,25.5,41.9,38.5
		c4.1,3.8,7.9,7.8,7.2,14.5c-0.6,5.7-1.2,7-7.5,7c-12.3,0.1-24.6,0-37-0.1c-13.2-0.1-26.3-0.2-39.5-0.5c-1.8,0-4.2-0.6-5.3-1.8
		C403.9,771.9,389,754,374,735.9z"/>
	<path class="st0" d="M576.8,630.5c4.4,7.4,9,14.7,13.2,22.2c14,25,28,49.9,41.6,75.1c2.7,5.1,5.9,7.5,11.5,7.2c2.2-0.1,4.3,0,7.3,0
		c-1.1,1.6-1.6,2.7-2.4,3.6c-13.8,16.5-27.5,33-41.4,49.3c-1.6,1.8-4.6,3.4-7,3.4c-24.5,0.4-48.9,0.5-73.4,0.7c-0.5,0-1,0.1-1.5,0
		c-2.8-0.7-7.8-1.2-8-2.4c-0.7-4-1.1-9.3,1-12.3c4.1-6,9.6-11,15-16c10.6-9.9,21.2-19.7,32.2-29.2c4.3-3.7,5.9-8.2,6.2-13.5
		c1.4-27.9,2.8-55.9,4.2-83.8c0.1-1.4,0.3-2.9,0.5-4.3C576.1,630.6,576.4,630.6,576.8,630.5z"/>
	<path class="st0" d="M471.5,635.4c-18.1-42.2-36.1-84.4-54.4-127.1c-7.3,8.6-17.5,7.2-26.9,7.6c-35.3,1.4-70.6,2.2-105.9,3.2
		c-2.5,0.1-5.1-0.4-8.8-0.8c1.8-2.1,2.8-3.4,3.9-4.5c17.4-17.9,34.9-35.8,52.2-53.8c2.3-2.4,4-2.8,7.2-1.4
		c26,11.5,49.6,27.1,73.3,42.5c7.8,5,15.8,9.9,23.5,15.1c1.8,1.2,3.5,3.2,4.3,5.1c10.6,26,21.1,52.1,31.5,78.2
		c0.9,2.2,1.3,4.8,1.4,7.2c0.2,9.4,0.1,18.9,0.1,28.3C472.5,635.2,472,635.3,471.5,635.4z"/>
	<path class="st0" d="M748,518.4c-3.1,0.3-5.5,0.8-8,0.7c-35.5-1-70.9-2-106.4-3.1c-4.3-0.1-8.8-0.1-12.9-1.1
		c-5-1.2-9.7-3.5-14.3-5.3c-17.8,41.4-35.8,83.6-53.9,125.8c-0.5-0.1-1-0.3-1.6-0.4c1.2-14.6-2-29.2,4.5-43.7
		c10.2-22.7,18.8-46.2,28.2-69.3c0.9-2.2,2.4-4.5,4.3-5.7c20.8-13.4,41.6-26.9,62.9-39.7c11.2-6.8,23.2-12.3,35-18.1
		c1.4-0.7,4.4-0.3,5.4,0.7c18.4,18.6,36.6,37.4,54.8,56.1C746.7,516,747.1,516.9,748,518.4z"/>
	<path class="st0" d="M262.9,210.6c38.8,62.4,78.2,125.7,117.6,189.1c-0.4,0.4-0.9,0.8-1.3,1.1c-0.9-0.5-1.8-0.9-2.6-1.5
		c-36.5-27.6-73-55.3-109.4-83.1c-2-1.5-4.1-4.5-4.1-6.8C262.8,276.3,262.9,243,262.9,210.6z"/>
	<path class="st0" d="M643.4,399.8c39.4-63.4,78.8-126.7,118.4-190.3c0.1,0.9,0.2,1.9,0.2,3c-0.3,32-0.5,64-1,95.9
		c0,2.6-1.6,6-3.6,7.5c-37,28.3-74.2,56.4-111.4,84.6c-0.2,0.2-0.6,0.2-0.9,0.4C644.5,400.5,644,400.2,643.4,399.8z"/>
	<path class="st0" d="M559.6,845.9c-16.4,24.5-32.4,48.2-47.6,70.9c-15.1-22.5-31.1-46.4-47.7-71c6.1-6.8,12.2-15.1,19.9-21.6
		c19-16.1,40.6-14.5,58.4,2.4C548.9,832.7,554.2,839.8,559.6,845.9z"/>
	<path class="st0" d="M420.3,642.1c-10.4,22.7-20.6,45-31.1,67.9c-1.4-2-2.4-3.2-3.3-4.6c-34.2-52.7-68.4-105.3-102.4-158.1
		c-3.3-5.2-4.9-11.4-7.3-17.2c0.4-0.2,0.9-0.5,1.3-0.7c2.5,3,5.1,6,7.6,9c15.9,18.8,31.2,38.2,47.8,56.4
		c20.4,22.3,45,38.4,75.1,44.9C412,640.6,415.9,641.2,420.3,642.1z"/>
	<path class="st0" d="M634.7,709.9c-10.4-22.8-20.6-45-31-67.8c2.5-0.5,4.7-0.9,6.9-1.3c26.7-4.7,49.5-17.1,69.5-35.1
		c20.4-18.4,36.8-40.3,54.1-61.5c4-4.9,8-9.7,13.2-14.1c-1.7,5-2.6,10.5-5.4,14.8c-35.1,54.5-70.4,108.8-105.6,163.1
		C636.1,708.4,635.7,708.8,634.7,709.9z"/>
	<path class="st0" d="M473,516.2c-8.4-3.9-16-7.2-23.4-10.9c-1.2-0.6-2.2-2.4-2.7-3.8c-4.2-12.3-8.3-24.6-12.3-36.9
		c-0.6-1.7-0.6-4,0-5.7c15.1-39.8,30.4-79.6,45.6-119.3c0.2-0.6,0.7-1.1,1.6-2.4C478.9,397.1,476,456.2,473,516.2z"/>
	<path class="st0" d="M551,516.1c-2.9-59.9-5.8-119-8.7-178c0.2-0.1,0.4-0.2,0.5-0.3c0.6,1.3,1.3,2.7,1.9,4
		c14.7,38.2,29.4,76.4,43.8,114.7c1.1,3,1.1,6.9,0.2,9.9c-3.3,11.2-7.4,22.1-10.8,33.2c-1.1,3.7-3.2,5.8-6.7,7.3
		C564.7,509.7,558.3,512.8,551,516.1z"/>
	<path class="st0" d="M741.3,522.8c-0.9,1.1-1.7,2.2-2.7,3.2c-24.3,26.5-48.6,53-72.9,79.6c-2.1,2.3-4,3-6.9,2.5
		c-21.7-3.5-43.3-7.2-65.1-10.1c-7.4-1-9.6-6.7-14-11.6c4.5,0,8.2,0,11.9,0c22,0.2,44,0.4,65.9,0.8c3.2,0.1,4.3-1.6,5.5-3.9
		c7.9-14.5,15.8-28.9,23.8-43.2c0.8-1.5,2.3-3.2,3.8-3.6c16.6-5.1,33.3-9.9,50-14.8C740.9,522,741.1,522.4,741.3,522.8z"/>
	<path class="st0" d="M283.3,521.6c16.7,4.9,33.4,9.8,50,14.8c1.5,0.5,3,2.1,3.8,3.6c8,14.2,15.9,28.4,23.5,42.8
		c1.7,3.3,3.6,4.4,7.3,4.3c25.1-0.2,50.3-0.1,75.8-0.1c-3.8,4.3-6,10-13.9,11.1c-21.6,2.8-43.1,6.6-64.6,9.8
		c-1.9,0.3-4.9-0.4-6.1-1.7c-25.2-27.2-50.3-54.7-75.4-82.1c-0.4-0.4-0.7-1-1-1.5C283,522.3,283.1,522,283.3,521.6z"/>
	<path class="st0" d="M399.9,452.7c-17.6-3.2-34.1-6.1-51.9-9.3c12.6-11.7,24.4-22.6,36-33.3C388.7,422.8,394.2,437.3,399.9,452.7z"
		/>
	<path class="st0" d="M674.8,443.6c-16.6,3-33.1,6-50.7,9.1c5.8-15.4,11.2-29.9,16.3-43.6c11.8,11,23.5,21.9,35.2,32.9
		C675.3,442.5,675,443.1,674.8,443.6z"/>
	<path class="st0" d="M654.5,535.7c3.7,0.9,7.5,1.5,11,2.9c1.2,0.5,2.5,3,2.3,4.5c-2.7,24.3-24.4,38.8-47.9,32.2
		c-7.8-2.2-17.1-9.3-22.6-17.6c2-3.2,4.1-6.6,6.7-10.8c8.2,15.4,20.6,20.9,36.7,16.2C649.3,560.4,652.1,554,654.5,535.7z"/>
	<path class="st0" d="M369.9,535.6c-0.2,12.5,1.6,24,14.9,27.8c15.3,4.3,27.3-1.5,35.1-16.6c2.6,4.1,4.7,7.4,6.7,10.6
		c-12.4,23.1-48.3,26.2-63.2,5c-4-5.7-5.1-13.5-7.2-20.4c-0.3-0.9,1-3,1.9-3.4C361.7,537.4,365.6,536.6,369.9,535.6z"/>
	<path class="st0" d="M483.4,809.7c-9.7,8.8-18.8,17.1-28.2,25.7c-6.7-8.5-13.3-16.8-20.2-25.7C451.1,809.7,466.7,809.7,483.4,809.7
		z"/>
	<path class="st0" d="M589.1,809.6c-7.1,9-13.6,17.3-20.3,25.8c-9.4-8.6-18.5-16.9-28.2-25.8C557.1,809.6,572.7,809.6,589.1,809.6z"
		/>
	<path class="st0" d="M402.8,532.5c0,5.7-5,10.5-10.7,10.3c-5.5-0.2-10.1-4.9-10.1-10.4c0-5.8,4.9-10.4,10.6-10.3
		C398.3,522.3,402.8,526.9,402.8,532.5z"/>
	<path class="st0" d="M631.7,522.1c5.6,0,10.2,4.6,10.3,10.1c0.1,5.7-4.7,10.6-10.4,10.5c-5.7-0.1-10.5-5-10.3-10.7
		C621.4,526.5,626.1,522.1,631.7,522.1z"/>
</g>
<g>
	<g>
		<polygon class="st1" points="512,646 342.6,740.8 512,979.9 		"/>
	</g>
	<polygon class="st1" points="512,646 681.4,740.8 512,979.9 	"/>
</g>
</svg>
